<?xml version="1.0" standalone="no"?>
<svg viewBox="0 0 200 200" xmlns="http://www.w3.org/2000/svg">
  <path fill="#73748A" d="M32.1,-56.9C45.3,-48,62.2,-46.8,72.2,-38.6C82.3,-30.4,85.5,-15.2,80.9,-2.6C76.3,9.9,63.9,19.8,56.2,32C48.4,44.2,45.3,58.6,36.7,62.8C28.1,66.9,14.1,60.8,-0.4,61.5C-14.9,62.2,-29.8,69.8,-43.7,68.7C-57.7,67.7,-70.7,58,-74.6,45.1C-78.6,32.2,-73.5,16.1,-70.3,1.9C-67.1,-12.4,-65.6,-24.7,-60.3,-35.2C-54.9,-45.6,-45.5,-54.2,-34.8,-64.5C-24.1,-74.8,-12.1,-86.9,-1.3,-84.6C9.5,-82.4,18.9,-65.8,32.1,-56.9Z" transform="translate(100 100)" />
</svg>
